<svg xmlns="http://www.w3.org/2000/svg"><symbol id="youtube" viewBox="0 0 24 24"><path d="m22.54,6.842c-.253-.922-.998-1.648-1.945-1.895-1.716-.448-8.595-.448-8.595-.448,0,0-6.88,0-8.595.448-.947.246-1.692.973-1.945,1.895-.46,1.671-.46,5.158-.46,5.158,0,0,0,3.487.46,5.158.253.922.998,1.648,1.945,1.895,1.716.448,8.595.448,8.595.448,0,0,6.88,0,8.595-.448.947-.246,1.692-.973,1.945-1.895.46-1.671.46-5.158.46-5.158,0,0,0-3.487-.46-5.158Zm-12.54,8.372v-6.429l5.716,3.214-5.716,3.214Z" /></symbol><symbol id="bluesky" viewBox="0 0 24 24"><path d="M5.769,3.346c2.522,1.955,5.235,5.919,6.231,8.047v5.619c0-.12-.045.016-.141.307-.52,1.576-2.55,7.729-7.192,2.81-2.444-2.59-1.313-5.179,3.137-5.961-2.545.447-5.407-.292-6.192-3.189-.226-.833-.611-5.967-.611-6.661,0-3.473,2.949-2.382,4.769-.971ZM18.231,3.346c-2.522,1.955-5.235,5.919-6.231,8.047v5.619c0-.12.045.016.141.307.52,1.576,2.55,7.729,7.192,2.81,2.444-2.59,1.313-5.179-3.137-5.961,2.545.447,5.407-.292,6.192-3.189.226-.833.611-5.967.611-6.661,0-3.473-2.949-2.382-4.769-.971Z" /></symbol><symbol id="signal" viewBox="0 0 24 24"><path d="M12,1c.571,0,1.131.043,1.678.127l-.157,1.019c-.496-.076-1.004-.115-1.521-.115s-1.025.039-1.521.115l-.157-1.019c.547-.084,1.108-.127,1.678-.127ZM14.61,1.312l-.245,1.002c1.005.245,1.95.642,2.81,1.165l.536-.882c-.949-.578-1.992-1.016-3.101-1.286ZM18.501,3.126l-.609.832c.822.603,1.548,1.329,2.151,2.151l.832-.609c-.665-.907-1.467-1.708-2.374-2.374ZM21.403,6.288l-.882.535c.523.86.92,1.805,1.165,2.81l1.002-.245c-.27-1.109-.708-2.152-1.286-3.101ZM22.873,10.322l-1.019.157c.076.496.115,1.004.115,1.521s-.039,1.025-.115,1.521l1.019.157c.084-.547.127-1.108.127-1.678s-.043-1.131-.127-1.678ZM20.521,17.176c.523-.86.92-1.805,1.165-2.811l1.002.245c-.27,1.109-.708,2.152-1.286,3.101l-.882-.535ZM20.042,17.891l.832.609c-.665.907-1.467,1.708-2.374,2.374l-.61-.832c.822-.603,1.548-1.329,2.151-2.151ZM17.176,20.521l.535.882c-.949.578-1.992,1.016-3.101,1.286l-.245-1.002c1.005-.245,1.951-.642,2.81-1.165h0ZM13.521,21.853l.157,1.019c-.547.084-1.108.127-1.678.127s-1.131-.043-1.679-.127l.157-1.019c.496.076,1.004.115,1.521.115s1.025-.039,1.521-.115ZM9.634,21.687l-.245,1.002c-.833-.203-1.629-.5-2.376-.881l-1.044.244-.234-1.004,1.411-.329.336.171c.676.345,1.397.614,2.152.798h0ZM4.865,21.25l.234,1.004-1.789.417c-1.191.278-2.26-.791-1.982-1.982l.418-1.79,1.004.234-.418,1.79c-.104.447.297.847.743.743l1.789-.418ZM2.953,18.264l-1.004-.234.244-1.044c-.38-.747-.678-1.543-.881-2.376l1.002-.245c.184.755.453,1.476.798,2.152l.171.336-.329,1.411ZM2.146,13.521l-1.019.157c-.084-.547-.127-1.108-.127-1.678s.043-1.131.127-1.678l1.019.157c-.076.496-.115,1.004-.115,1.521s.039,1.025.115,1.521ZM2.314,9.634l-1.002-.245c.27-1.109.708-2.152,1.286-3.101l.882.535c-.523.86-.92,1.805-1.165,2.81ZM3.958,6.109l-.832-.609c.665-.907,1.467-1.708,2.374-2.374l.609.832c-.822.603-1.548,1.329-2.151,2.151ZM6.824,3.479l-.535-.882c.949-.578,1.992-1.016,3.101-1.286l.245,1.002c-1.005.245-1.95.642-2.81,1.165ZM20.937,12c0,4.936-4.001,8.938-8.938,8.938-1.566,0-3.037-.403-4.317-1.11-.123-.068-.267-.09-.404-.059l-3.976.928.928-3.976c.032-.137.01-.281-.059-.404-.707-1.28-1.11-2.751-1.11-4.317C3.062,7.064,7.064,3.062,12,3.062s8.938,4.001,8.938,8.938h0Z" /></symbol><symbol id="email" viewBox="0 0 24 24"><path d="m23,6.977v10.648c0,1.787-1.362,3.265-3.106,3.369l-.194.006H4.3c-1.747,0-3.192-1.393-3.294-3.177l-.006-.198V6.977l10.389,7.084.128.074c.305.152.661.152.966,0l.128-.074s10.389-7.084,10.389-7.084Zm-3.3-3.977c1.188,0,2.23.641,2.811,1.605l-10.511,7.166L1.489,4.605c.56-.93,1.524-1.525,2.589-1.598l.221-.008h15.4Z" /></symbol></svg>